<?xml version="1.0" encoding="UTF-8"?>
<svg width="68px" height="68px" viewBox="0 0 68 68" version="1.1" xmlns="http://www.w3.org/2000/svg" xmlns:xlink="http://www.w3.org/1999/xlink">
    <defs>
        <polygon class="path-1" points="0.00034 0.20077 67.7994 0.20077 67.7994 68 0.00034 68"></polygon>
    </defs>
    <g stroke="none" stroke-width="1" fill="none" fill-rule="evenodd">
        <g>
            <circle cx="33.5" cy="33.5" r="32.5"></circle>
            <g>
                <g>
                    <g>
                        <mask class="favicon-mask" fill="white">
                            <use xlink:href=".path-1"></use>
                        </mask>
                        <g class="path-1"></g>
                        <path d="M65.59484,34.10047 C65.59484,51.60537 51.40494,65.79527 33.89919,65.79527 C16.39514,65.79527 2.20439,51.60537 2.20439,34.10047 C2.20439,16.59557 16.39514,2.40567 33.89919,2.40567 C51.40494,2.40567 65.59484,16.59557 65.59484,34.10047 M33.89919,0.20077 C15.17794,0.20077 0.00034,15.37837 0.00034,34.10047 C0.00034,52.82257 15.17794,68.00017 33.89919,68.00017 C52.62129,68.00017 67.79974,52.82257 67.79974,34.10047 C67.79974,15.37837 52.62129,0.20077 33.89919,0.20077" fill="#16171A" fill-rule="nonzero" mask="url(.favicon-mask)"></path>
                    </g>
                    <path d="M50.0538026,20.1007763 C50.5458617,20.6299041 51.2552998,21.4836003 51.6545862,22 L59,17.3387649 C58.6334569,16.8596405 58.0495348,16.1304987 57.6120479,15.6177355 L52.9597706,18.6924959 L52.6441615,18.9661514 L52.8806409,18.6197637 L54.9343735,14.5222043 L53.4827538,13.0711938 L49.3816553,15.1240646 L49.0369411,15.3604449 L49.311621,15.0422407 L52.3894913,10.394643 C51.8483174,9.93370166 51.3280627,9.51185397 50.6641013,9 L46,16.3359676 C46.590289,16.7914539 47.3688519,17.4578641 47.8654585,17.9115322 L52.2548799,15.6350095 L52.5359267,15.4286314 L52.329462,15.7095601 L50.0538026,20.1007763 Z" fill="#000000" fill-rule="nonzero"></path>
                    <path d="M33.8506856,11.2123717 L35.7188081,6.78185078 L35.8373117,6.3891822 L35.8034536,6.79978085 L36.0006771,12.7202909 C36.6549856,12.7866321 37.3321483,12.882558 38,13 L37.6952769,4.22860843 C36.7624851,4.12013149 35.8330794,4.04123917 34.90452,4 L33.0643304,8.83663711 L33,9.19523857 L32.9348231,8.83663711 L31.09548,4 C30.1669206,4.04123917 29.2375149,4.12013149 28.3038767,4.22860843 L28,13 C28.6678517,12.882558 29.3450144,12.7866321 30.0001693,12.7202909 L30.1965464,6.79978085 L30.1626883,6.3891822 L30.2820383,6.78185078 L32.1493144,11.2123717 L33.8506856,11.2123717 Z" fill="#000000" fill-rule="nonzero"></path>
                    <path d="M14.6448986,17.3634587 C14.6448986,17.3634587 16.8139514,15.0769018 17.5201546,14.3449726 C17.8004858,14.0536862 17.9815848,13.8787493 18.1759147,13.7838543 C18.4256494,13.6609034 18.6985382,13.6369734 18.9433112,13.7995326 C19.1831226,13.9587912 19.294759,14.2376999 19.2335657,14.5108326 C19.1607953,14.8376014 18.895349,15.1495172 18.6729031,15.3871672 C18.3743794,15.7065095 15.8026088,18.4526882 15.7993011,18.4559889 L14.6448986,17.3634587 Z M12.4146527,15.2510135 C13.5624396,13.8506934 14.7829969,12.5799256 15.3353901,12.0757444 C15.5107005,11.9164858 15.7000688,11.7597028 15.9307839,11.6961644 C16.3053858,11.5930177 16.6915648,11.8587237 16.7792201,12.2416043 C16.8668753,12.6269605 16.6237562,12.9925126 16.355002,13.2937011 C15.748031,13.976945 13.5227467,16.3006347 13.5227467,16.3006347 L12.4146527,15.2510135 Z M19.849633,16.5704665 C20.9039761,15.4614329 21.5026776,14.1799378 20.4466805,12.9570301 C19.8719602,12.29194 18.9094068,12.1475345 18.1089329,12.4759537 L18.0295471,12.5073103 L18.056009,12.4379957 C18.1742609,12.1227793 18.2486851,11.1168923 17.3894988,10.4220959 C16.9710692,10.0829494 16.445965,9.9583482 15.9134182,10.0119845 C14.9235761,10.1118305 14.1603143,10.7868228 12.0847053,13.0973097 C11.4595418,13.7929313 10.5474315,14.892888 10,15.6058383 C9.99917306,15.6058383 15.698415,21 15.698415,21 C17.592098,18.9114849 18.3611484,18.1358214 19.849633,16.5704665 L19.849633,16.5704665 Z" fill="#000000" fill-rule="nonzero"></path>
                    <path d="M34,14 L34,34 L14,34 C14,22.9463001 22.9463001,14 34,14" fill="#000000" fill-rule="nonzero"></path>
                    <path d="M54,34 C54,45.0536999 45.0532324,54 34,54 L34,34 L54,34 Z" fill="#000000" fill-rule="nonzero"></path>
                </g>
                <path d="M34,52.9029784 C23.5769246,52.9029784 15.0970216,44.4230754 15.0970216,34 L14,34 C14,45.0457516 22.9542484,54 34,54 M34,14 L34,15.0962603 C44.4232794,15.0962603 52.9033483,23.5763292 52.9033483,34 L54,34 C54,22.9544236 45.0455764,14 34,14" fill="#000000" fill-rule="nonzero"></path>
            </g>
        </g>
    </g>
</svg>