<?xml version="1.0" encoding="utf-8"?>
<!-- Generator: Adobe Illustrator 24.2.3, SVG Export Plug-In . SVG Version: 6.00 Build 0)  -->
<svg version="1.1" xmlns="http://www.w3.org/2000/svg" xmlns:xlink="http://www.w3.org/1999/xlink" x="0px" y="0px"
	 viewBox="0 0 70 70" style="enable-background:new 0 0 70 70;" xml:space="preserve">
<style type="text/css">
    <!-- light-mode-->
    .border {
        fill: #ffffff;
    }

    .border-secondary {
        fill: #1D1D1B;
    }

    .colored-area-secondary {
        display: none;
    }

    .colored-area {
        fill: #0066B1;
    }

    <!-- dark-mode-->
    @media (prefers-color-scheme: dark) {
        .border {
             fill: #ffffff;
        }

        .border-secondary {
            fill: #ffffff;
        }

        .colored-area-secondary {
             display: block;
             fill: #ffffff;
        }

        .colored-area {
            fill: #0067B2;
        }
    }
</style>
<g>
	<path class="border" d="M34.99,1.55c-18.35,0-33.22,14.87-33.22,33.22C1.76,53.13,16.64,68,34.99,68s33.22-14.87,33.22-33.22
		C68.21,16.43,53.33,1.55,34.99,1.55 M66.05,34.78c0,17.16-13.91,31.06-31.06,31.06S3.92,51.93,3.92,34.78S17.83,3.72,34.99,3.72
		S66.05,17.62,66.05,34.78"/>
	<path class="border" d="M34.99,15.08v1.08c10.27,0,18.62,8.35,18.62,18.62h1.08C54.69,23.9,45.87,15.08,34.99,15.08 M34.99,53.4
		c-10.27,0-18.62-8.35-18.62-18.62h-1.08c0,10.88,8.82,19.7,19.7,19.7"/>
	<path class="border" d="M51.09,20.68c0.45,0.49,1.1,1.27,1.47,1.74l6.73-4.27c-0.34-0.44-0.87-1.11-1.27-1.58l-4.26,2.82l-0.29,0.25
		l0.22-0.32l1.88-3.76l-1.33-1.33l-3.76,1.88l-0.32,0.22l0.25-0.29l2.82-4.26c-0.5-0.42-0.97-0.81-1.58-1.28l-4.27,6.72
		c0.54,0.42,1.25,1.03,1.71,1.44l4.02-2.09l0.26-0.19l-0.19,0.26L51.09,20.68z"/>
	<path class="border" d="M35.82,12.16l1.84-4.12l0.12-0.36l-0.03,0.38l0.19,5.5c0.64,0.06,1.31,0.15,1.97,0.26l-0.3-8.15
		c-0.92-0.1-1.83-0.17-2.75-0.21l-1.81,4.49l-0.06,0.33l-0.06-0.33l-1.81-4.49c-0.91,0.04-1.83,0.11-2.75,0.21l-0.3,8.15
		c0.66-0.11,1.32-0.2,1.97-0.26l0.19-5.5l-0.03-0.38l0.12,0.36l1.84,4.12H35.82z"/>
	<path class="border" d="M20.95,18.66c1.06-1.12,1.67-2.41,0.6-3.65c-0.58-0.67-1.55-0.82-2.35-0.49l-0.08,0.03l0.03-0.07
		c0.12-0.32,0.19-1.33-0.67-2.04c-0.42-0.34-0.95-0.47-1.49-0.41c-1,0.1-1.77,0.78-3.86,3.11c-0.63,0.7-1.55,1.81-2.1,2.53
		l5.74,5.45C18.68,21.02,19.45,20.24,20.95,18.66 M13.46,17.33c1.16-1.41,2.39-2.7,2.94-3.21c0.18-0.16,0.37-0.32,0.6-0.38
		c0.38-0.1,0.77,0.16,0.85,0.55c0.09,0.39-0.16,0.76-0.43,1.06c-0.61,0.69-2.85,3.04-2.85,3.04L13.46,17.33z M15.71,19.46
		c0,0,2.18-2.31,2.9-3.05c0.28-0.29,0.46-0.47,0.66-0.57c0.25-0.12,0.53-0.15,0.77,0.02c0.24,0.16,0.35,0.44,0.29,0.72
		c-0.07,0.33-0.34,0.64-0.57,0.88c-0.3,0.32-2.89,3.1-2.89,3.1L15.71,19.46z"/>
	<path class="colored-area" d="M34.99,15.08v19.7h-19.7C15.28,23.89,24.1,15.08,34.99,15.08"/>
	<path class="colored-area" d="M54.69,34.78c0,10.89-8.81,19.7-19.7,19.7v-19.7H54.69z"/>
</g>
<g>
	<path class="border-secondary" d="M34.99,1.55c-18.35,0-33.22,14.87-33.22,33.22C1.76,53.13,16.64,68,34.99,68s33.22-14.87,33.22-33.22
		C68.21,16.43,53.33,1.55,34.99,1.55 M66.05,34.78c0,17.16-13.91,31.06-31.06,31.06S3.92,51.93,3.92,34.78S17.83,3.72,34.99,3.72
		S66.05,17.62,66.05,34.78"/>
	<path class="border-secondary" d="M34.99,15.08v1.08c10.27,0,18.62,8.35,18.62,18.62h1.08C54.69,23.9,45.87,15.08,34.99,15.08 M34.99,53.4
		c-10.27,0-18.62-8.35-18.62-18.62h-1.08c0,10.88,8.82,19.7,19.7,19.7"/>
	<path class="border-secondary" d="M51.09,20.68c0.45,0.49,1.1,1.27,1.47,1.74l6.73-4.27c-0.34-0.44-0.87-1.11-1.27-1.58l-4.26,2.82l-0.29,0.25
		l0.22-0.32l1.88-3.76l-1.33-1.33l-3.76,1.88l-0.32,0.22l0.25-0.29l2.82-4.26c-0.5-0.42-0.97-0.81-1.58-1.28l-4.27,6.72
		c0.54,0.42,1.25,1.03,1.71,1.44l4.02-2.09l0.26-0.19l-0.19,0.26L51.09,20.68z"/>
	<path class="border-secondary" d="M35.82,12.16l1.84-4.12l0.12-0.36l-0.03,0.38l0.19,5.5c0.64,0.06,1.31,0.15,1.97,0.26l-0.3-8.15
		c-0.92-0.1-1.83-0.17-2.75-0.21l-1.81,4.49l-0.06,0.33l-0.06-0.33l-1.81-4.49c-0.91,0.04-1.83,0.11-2.75,0.21l-0.3,8.15
		c0.66-0.11,1.32-0.2,1.97-0.26l0.19-5.5l-0.03-0.38l0.12,0.36l1.84,4.12H35.82z"/>
	<path class="border-secondary" d="M20.95,18.66c1.06-1.12,1.67-2.41,0.6-3.65c-0.58-0.67-1.55-0.82-2.35-0.49l-0.08,0.03l0.03-0.07
		c0.12-0.32,0.19-1.33-0.67-2.04c-0.42-0.34-0.95-0.47-1.49-0.41c-1,0.1-1.77,0.78-3.86,3.11c-0.63,0.7-1.55,1.81-2.1,2.53
		l5.74,5.45C18.68,21.02,19.45,20.24,20.95,18.66 M13.46,17.33c1.16-1.41,2.39-2.7,2.94-3.21c0.18-0.16,0.37-0.32,0.6-0.38
		c0.38-0.1,0.77,0.16,0.85,0.55c0.09,0.39-0.16,0.76-0.43,1.06c-0.61,0.69-2.85,3.04-2.85,3.04L13.46,17.33z M15.71,19.46
		c0,0,2.18-2.31,2.9-3.05c0.28-0.29,0.46-0.47,0.66-0.57c0.25-0.12,0.53-0.15,0.77,0.02c0.24,0.16,0.35,0.44,0.29,0.72
		c-0.07,0.33-0.34,0.64-0.57,0.88c-0.3,0.32-2.89,3.1-2.89,3.1L15.71,19.46z"/>
	<path class="colored-area" d="M34.99,15.08v19.7h-19.7C15.28,23.89,24.1,15.08,34.99,15.08"/>
	<path class="colored-area" d="M54.69,34.78c0,10.89-8.81,19.7-19.7,19.7v-19.7H54.69z"/>
    <path class="colored-area-secondary" d="M15.3,34.73H35v19.7C24.11,54.43,15.3,45.62,15.3,34.73"/>
    <path class="colored-area-secondary" d="M35,15.03c10.89,0,19.7,8.81,19.7,19.7H35V15.03z"/>
</g>
</svg>
